<?xml version="1.0" standalone="no"?><!DOCTYPE svg PUBLIC "-//W3C//DTD SVG 1.1//EN" "http://www.w3.org/Graphics/SVG/1.1/DTD/svg11.dtd"><svg t="1507894701135" class="icon" style="" viewBox="0 0 1024 1024" version="1.1" xmlns="http://www.w3.org/2000/svg" p-id="6880" xmlns:xlink="http://www.w3.org/1999/xlink" width="200" height="200"><defs><style type="text/css"></style></defs><path d="M637.823 482.979c47.737-40.8 78.579-103.999 78.579-175.019 0-122.77-91.808-222.633-204.656-222.633-112.865 0-204.667 99.861-204.667 222.633 0 71.020 30.85 134.219 78.58 175.019-125.817 54.684-215.025 188.352-215.025 344.467v74.203c0 20.511 15.26 37.107 34.111 37.107h613.984c18.859 0 34.112-16.596 34.112-37.107v-74.203c0.001-156.149-89.202-289.783-215.019-344.467v0zM637.823 482.979z" p-id="6881" fill="#007bff"></path><path d="M842.583 469.574c27.917-33.483 44.372-77.509 44.372-124.477 0-102.331-76.516-185.559-170.548-185.559-2.837 0-5.47 0.763-8.261 0.901 14.787 23.232 26.014 49.213 33.241 77.038 0.012 0 0.016 0.006 0.028 0.006-0.229 0.022-0.368 0.037-0.368 0.037s46.842 135.778-46.43 242.313c15.543 7.614 192.021 87.297 192 347.614 0.116 0 0.228-0.016 0.34-0.016v0.007h68.221c18.852 0 34.112-16.592 34.112-37.099v-57.404c-0.005-113.239-57.895-213.318-146.705-263.362v0zM842.583 469.574z" p-id="6882" fill="#007bff"></path><path d="M328.531 479.833c-93.268-106.534-46.435-242.313-46.435-242.313 7.2-27.868 18.453-53.849 33.22-77.075-2.774-0.151-5.411-0.908-8.237-0.908-94.037 0-170.551 83.229-170.551 185.559 0 46.961 16.46 90.989 44.369 124.477-88.81 50.046-146.698 150.124-146.698 263.362v57.404c0 20.507 15.254 37.099 34.112 37.099h68.218c-0.018-260.308 176.454-339.994 192.002-347.605v0zM328.531 479.833z" p-id="6883" fill="#007bff"></path></svg>