<?xml version="1.0" standalone="no"?><!DOCTYPE svg PUBLIC "-//W3C//DTD SVG 1.1//EN" "http://www.w3.org/Graphics/SVG/1.1/DTD/svg11.dtd"><svg t="1507889508565" class="icon" style="" viewBox="0 0 1024 1024" version="1.1" xmlns="http://www.w3.org/2000/svg" p-id="4268" xmlns:xlink="http://www.w3.org/1999/xlink" width="200" height="200"><defs><style type="text/css"></style></defs><path d="M534.8 830.7l-0.1-507.7c-4.4-109.7 46.6-154.5 138.9-171.2 71.1-12.8 143.9-16.4 226.6-25.1 0 211-0.3 599.7-0.3 599.7l0.3 50.1s-186.9-14.6-365.4 54.2z" fill="#007bff" p-id="4269"></path><path d="M552.3 866.3c128.1-20.8 257.5-41.7 399.1-64.7V221.9h30.5l0.1 604.7c-0.7 25-27.7 69.8-43.8 70.6l-361.4 0.1c-9.8-0.2-24.5-31-24.5-31zM491.9 830.7L492 323c4.4-109.7-46.7-154.5-138.9-171.2-71.1-12.8-143.8-16.4-226.6-25.2 0 211 0.3 599.7 0.3 599.7l-0.3 50.1c0 0.1 187-14.5 365.4 54.3z" fill="#007bff" p-id="4270"></path><path d="M471.3 866.3C343.2 845.5 215.6 824.7 74 801.6V222H42v604.7c0.7 25 29.2 69.8 45.3 70.6l359.6 0.1c9.8-0.3 24.4-31.1 24.4-31.1z" fill="#007bff" p-id="4271"></path></svg>