<?xml version="1.0" standalone="no"?><!DOCTYPE svg PUBLIC "-//W3C//DTD SVG 1.1//EN" "http://www.w3.org/Graphics/SVG/1.1/DTD/svg11.dtd"><svg t="1507894775582" class="icon" style="" viewBox="0 0 1216 1024" version="1.1" xmlns="http://www.w3.org/2000/svg" p-id="9941" xmlns:xlink="http://www.w3.org/1999/xlink" width="237.5" height="200"><defs><style type="text/css"></style></defs><path d="M737.0614 619.305093L590.240511 886.553725l-21.777951-63.603155 40.238731-80.333237-80.477462-80.333237-80.477462 80.189012 40.238731 80.333237-25.960472 65.189629-142.782594-268.835106S15.07184 780.115792 15.07184 939.340018c0 43.988577 18.17233 84.659982 62.593581 84.659982h902.991738c44.132802 0 62.737806-40.238731 62.737806-84.083083 0-149.416937-306.333565-320.611824-306.333565-320.611824m210.424045 160.810699z" p-id="9942" fill="#007bff"></path><path d="M792.876414 290.039778l-0.144225-12.547561-10.528413-7.067018c-1.298024-0.865349-2.596047-1.730698-3.749846-2.451822-21.633726-185.328922-20.191478-294.651353-236.528741-262.344988-75.862267 11.249538-158.791551-12.114887-205.953075 22.210626-59.27641 55.382339-63.458931 138.600073-47.449973 236.240291-3.605621 1.874923-7.211242 4.038296-10.672639 6.490118l-10.528413 7.067017-0.144225 12.547562c-0.576899 32.45059 3.605621 59.997534 12.403337 80.910136 8.076591 19.181904 19.903028 33.315939 35.76776 41.825204 18.893454 63.74738 46.007725 111.485803 79.900563 145.955541 36.92156 37.498459 81.342811 58.843736 131.677281 67.208776l4.47097 0.721124 4.47097-0.865349c55.670789-11.682212 100.092041-33.892838 135.571352-71.102847 32.883264-34.469737 57.401487-80.910137 75.429592-142.926818 15.287833-8.797715 26.681596-23.075975 34.325513-42.113654 8.220816-20.912602 12.114887-47.882648 11.682212-79.756338z m-57.401487 61.584007c-4.326745 10.528413-10.239964 17.451206-17.595431 20.047254l-12.259111 4.326745-3.317172 12.403336c-16.153182 59.56486-37.642684 102.688088-66.631877 132.975305-27.258495 28.556519-61.872457 46.15195-105.42836 55.959239-38.363808-7.211242-72.112421-23.797099-100.09204-52.353618-30.142992-30.575667-54.084316-74.996918-70.814398-136.004026l-3.605621-12.980236-12.980235-4.038296c-7.643917-2.307597-13.557135-9.086165-18.028106-19.614578-4.326745-10.384189-7.067017-23.652874-8.220816-39.373382 11.970662-1.730698 25.239347-5.192094 31.87369-0.865349 0.721124-2.163373 1.442248-4.75942 2.163373-7.643917h0.28845l1.009574-5.192094c3.605621-14.134035 7.643917-102.832313 11.249537-117.110572 1.442248-4.18252 1.874923-8.94194 4.615195-12.259112 17.451206 23.652874 149.416937 26.393146 225.856103-26.537371l-14.278259 38.652258 14.566709 2.884497 16.297407-25.960472-2.019148 18.17233 15.432058 2.019148 9.663065-29.854542c19.037679 10.816863 39.950281 25.239347 58.699511 17.451206 6.201668 13.98981 11.105313 99.515141 14.134034 115.956773l4.038296 21.201052 7.067017-0.432675 3.317171 10.961088c8.365041-1.009574 15.576283-1.153799 22.643301-1.298023-0.865349 15.287833-3.461396 28.268069-7.643917 38.508032z" p-id="9943" fill="#007bff"></path></svg>