<?xml version="1.0" standalone="no"?><!DOCTYPE svg PUBLIC "-//W3C//DTD SVG 1.1//EN" "http://www.w3.org/Graphics/SVG/1.1/DTD/svg11.dtd"><svg t="1508074518352" class="icon" style="" viewBox="0 0 1024 1024" version="1.1" xmlns="http://www.w3.org/2000/svg" p-id="4828" xmlns:xlink="http://www.w3.org/1999/xlink" width="200" height="200"><defs><style type="text/css"></style></defs><path d="M768 341.333333v85.333334h85.333333v426.666666H426.666667v-85.333333H341.333333v170.666667h597.333334V341.333333h-170.666667z" fill="#868E96" p-id="4829"></path><path d="M104.277333 106.922667h603.093334v603.136H104.277333V106.922667m158.464 503.936c13.44 28.501333 39.893333 51.968 85.12 51.968 50.261333 0 84.778667-26.837333 84.778667-85.461334V383.701333H375.68v192.341334c0 28.8-11.733333 36.181333-30.165333 36.181333-19.413333 0-27.477333-13.397333-36.522667-29.141333l-46.250667 27.776m200.405334-5.973334c16.725333 32.810667 50.56 57.941333 103.509333 57.941334 53.632 0 93.824-27.818667 93.824-79.104 0-47.232-27.136-68.352-75.392-89.130667l-14.08-6.016c-24.448-10.368-34.816-17.408-34.816-34.176 0-13.738667 10.368-24.448 27.136-24.448 16.085333 0 26.794667 7.04 36.522667 24.448l43.861333-29.141333c-18.432-32.170667-44.544-44.586667-80.384-44.586667-50.602667 0-83.114667 32.170667-83.114667 74.752 0 46.208 27.136 68.010667 68.010667 85.418667l14.08 6.016c26.154667 11.392 41.557333 18.432 41.557333 37.888 0 16.085333-15.104 27.818667-38.528 27.818666-27.818667 0-43.904-14.421333-55.978666-34.56l-46.208 26.88z" fill="#868E96" p-id="4830"></path></svg>