<?xml version="1.0" standalone="no"?><!DOCTYPE svg PUBLIC "-//W3C//DTD SVG 1.1//EN" "http://www.w3.org/Graphics/SVG/1.1/DTD/svg11.dtd"><svg t="1508074549070" class="icon" style="" viewBox="0 0 1024 1024" version="1.1" xmlns="http://www.w3.org/2000/svg" p-id="5616" xmlns:xlink="http://www.w3.org/1999/xlink" width="200" height="200"><defs><style type="text/css"></style></defs><path d="M836.855172 0v217.158621h132.413794zM716.8 176.551724c7.062069-7.062069 10.593103-15.889655 10.593103-28.248276 0-8.827586-1.765517-15.889655-7.062069-21.186207-3.531034-5.296552-10.593103-10.593103-17.655172-12.35862-5.296552-1.765517-14.124138-1.765517-26.482759-1.765518h-52.965517v72.386207h52.965517c21.186207 0 33.544828-3.531034 40.606897-8.827586zM275.42069 176.551724c7.062069-7.062069 10.593103-15.889655 10.593103-28.248276 0-8.827586-1.765517-15.889655-7.062069-21.186207-3.531034-5.296552-10.593103-10.593103-17.655172-12.35862-5.296552-1.765517-14.124138-1.765517-26.482759-1.765518h-52.965517v72.386207h52.965517c21.186207 0 33.544828-3.531034 40.606897-8.827586z" fill="#868E96" p-id="5617"></path><path d="M969.268966 296.606897V247.172414h-167.724138V0H54.731034v1024H971.034483l-1.765517-727.393103zM593.213793 82.97931h82.97931c14.124138 0 24.717241 0 33.544828 1.765518 10.593103 1.765517 19.42069 5.296552 26.482759 10.593103 7.062069 5.296552 14.124138 12.358621 17.655172 21.186207 5.296552 8.827586 7.062069 19.42069 7.062069 30.013793 0 19.42069-5.296552 35.310345-17.655172 47.668966-12.358621 12.358621-33.544828 19.42069-63.558621 19.420689h-52.965517V300.137931h-31.779311V82.97931z m-227.751724 0h31.77931v88.275862h107.696552v-88.275862h31.77931v218.924138h-31.77931v-100.634482h-107.696552v100.634482h-31.77931V82.97931z m-213.627586 0h82.97931c14.124138 0 24.717241 0 33.544828 1.765518 10.593103 1.765517 19.42069 5.296552 26.482758 10.593103 7.062069 5.296552 14.124138 12.358621 17.655173 21.186207 5.296552 8.827586 7.062069 19.42069 7.062069 30.013793 0 19.42069-5.296552 35.310345-17.655173 47.668966-12.358621 12.358621-33.544828 19.42069-63.55862 19.420689h-52.965518V300.137931H151.834483V82.97931z m799.77931 921.6H72.386207V388.413793h879.227586v616.165517z" fill="#868E96" p-id="5618"></path><path d="M446.675862 768l-88.275862-88.275862 88.275862-88.275862h-68.855172l-84.744828 86.510345 84.744828 90.041379zM577.324138 768h68.855172l84.744828-90.041379-84.744828-86.510345h-68.855172l88.275862 88.275862z" fill="#868E96" p-id="5619"></path></svg>