<?xml version="1.0" standalone="no"?><!DOCTYPE svg PUBLIC "-//W3C//DTD SVG 1.1//EN" "http://www.w3.org/Graphics/SVG/1.1/DTD/svg11.dtd"><svg t="1508074622053" class="icon" style="" viewBox="0 0 1024 1024" version="1.1" xmlns="http://www.w3.org/2000/svg" p-id="6965" xmlns:xlink="http://www.w3.org/1999/xlink" width="200" height="200"><defs><style type="text/css"></style></defs><path d="M730.562 773.872l217.27 192.832-427.508-33.588c83.756-50.6 152.852-111.026 204.588-159.134a14.04 14.04 0 0 0 2.664 0.258c0.99-0.002 1.988-0.12 2.986-0.368z m240.474 115.228l40.016-524.09c-19.796 50.568-51.114 109.46-91.714 172.344l51.698 351.746z m-225.942-127.134l216.768 192.392-57.872-393.73c-47.706 71.012-104.99 143.616-158.896 201.338z m-253.192 187.586c-46.69 25.868-94.746 46.47-143.414 61.514l499.572-33.596-355.996-27.964-0.162 0.046zM74.694 697.102l130.858 305.78 107.702-356.8-238.56 51.02z m270.334-69.126l364.364 117.034-92.976-368.408-271.388 251.374z m291.778-287.964l339.658-22.736L710.902 100.38l-74.096 239.632zM830.004 5.838L607.12 4.83l99.086 69.38 123.798-68.372zM9.57 567.516L2.236 784.822l53.458-97.5-46.124-119.806z m121.766 87.3c42.368 2.702 85.166-6.686 128.34-25.584 29.082-13.782 59.252-31.224 89.534-51.726 43.43-30.684 87.2-69.064 131.29-112.76 158.584-157.166 223.79-332.934 154.492-402.918-16.536-16.688-40.208-25.218-70.376-25.35-91.32-0.394-227.81 68.35-344.138 183.684-111.172 110.196-183.262 240.992-183.648 333.236-0.136 32.798 8.938 58.638 26.966 76.814 16.034 16.198 38.816 22.762 67.54 24.604zM462.206 944.36a901.954 901.954 0 0 0 14.816-7.818l-146.644-282.944-110.366 365.572c0.924-0.12 8.378-1.016 8.378-1.016a696.24 696.24 0 0 0 28.542-4.23c60.636-10.338 120.63-29.266 178.308-56.278a759.686 759.686 0 0 0 26.966-13.286z m299.48-233.378l3.478-3.992a1167.052 1167.052 0 0 0 7.308-8.662s7.536-8.972 10.464-12.536a1693.992 1693.992 0 0 0 14.742-18.158c4.516-5.64 9.02-11.298 13.516-17.058a1645.23 1645.23 0 0 0 14.112-18.268c10.594-13.946 21.306-28.568 32.754-44.72a1610.814 1610.814 0 0 0 34.832-51.168l-19.862-12.146a164452.696 164452.696 0 0 1-228.406-140.006l90.148 357.19a1417.318 1417.318 0 0 0 26.914-30.476zM1016.47 135.9l-280.46-39.378 267.376 218.654c9.394-30.992 15.512-61.048 18.176-89.398 0.384-3.974 0.63-7.97 0.87-11.996 0.228-3.704 0.358-7.422 0.458-11.148 0.642-24.146-1.52-46.576-6.42-66.734z m-107.82 383.584c0.688-0.906 1.458-1.924 2.298-3.146 5.338-7.558 12.93-19.924 21.372-34.818 23.496-41.434 52.478-100.508 64.564-143.986L648.06 360.806a158701.808 158701.808 0 0 0 231.884 142.168l28.174 17.196c0.168-0.21 0.34-0.44 0.532-0.686zM490.528 932.256l1.09-0.614c76.092-42.168 144.1-94.042 220.284-168.174l-370.838-119.614 149.464 288.402zM1 823.884c1.638 48.292 11.886 88.162 30.482 118.782l17.316-206.226L1 823.884z m67.568-101.07l-19.98 238c28.468 37.24 66.504 53.87 123.056 53.87 5.696 0 11.612-0.156 17.956-0.466l-9.99-24.824c-21.618-53.704-83.306-206.898-111.042-266.58z m943.72-601.606c-4.112-12.578-9.36-24.192-15.622-34.612-25.264-42.03-68.904-68.922-129.742-79.952l-135.922 75.062 281.286 39.502z" fill="#ffffff" p-id="6966"></path></svg>