<?xml version="1.0" standalone="no"?><!DOCTYPE svg PUBLIC "-//W3C//DTD SVG 1.1//EN" "http://www.w3.org/Graphics/SVG/1.1/DTD/svg11.dtd"><svg t="1508074591363" class="icon" style="" viewBox="0 0 1024 1024" version="1.1" xmlns="http://www.w3.org/2000/svg" p-id="6272" xmlns:xlink="http://www.w3.org/1999/xlink" width="200" height="200"><defs><style type="text/css"></style></defs><path d="M630 66.5c122.8 73.5 236.7 191.7 283.5 341 14.9 47.5 32 117.4 21.2 181.9-5 30.1-12.1 58.3-16.9 84.6 11.4 9.1 18.9 24.1 27.1 36.4 36.8 55.3 64.7 124 59.2 219.2-14.2-4.6-23.4-27.3-34.7-36.4-28-22.5-53.2-41.8-96.5-49.9-54-10.2-100.3 19.6-132 38.1-38.6 22.6-83.1 36-134.5 45.7-63.4 12-151.9-1-203.1-15.2C276 876.4 170.2 816 97.8 725.7c-24.3-30.3-51.1-58.1-70.2-93.9l0.8-0.8c104.2 63.2 244.8 137.6 420.5 101.5 41.5-8.5 102.1-17.8 123.5-44.8L416.7 545.5 371 499.8c-23.1-22.2-46.6-44.3-66.8-69.4-62.2-77.2-133.5-148.5-187.8-233.6 29.3 23.1 58.7 46.3 88 69.4 67.7 51.3 133.3 103.7 203.1 153.2 25.1 17.8 62.5 50.7 90.5 61.8-33.3-37.8-66.6-75.6-99.8-113.4-53.6-68.7-103.4-141.2-153.2-213.3 46.5 41.2 93.1 82.4 139.6 123.5 33.8 28.5 67.7 57 101.5 85.5 42.9 31.3 85.8 62.6 128.6 93.9 32.2 22.8 64.3 45.7 96.5 68.5 19.1-22.1 16.8-86.1 22.8-124.4 2.6-16.7 1-39.3-1.7-55-2-16.6-3.9-33.3-5.9-49.9-13.9-62.9-32.3-121.9-60.9-170.9-11.8-19.7-23.7-39.4-35.5-59.2z" fill="#868E96" p-id="6273"></path></svg>